<svg width="138" height="54" viewBox="0 0 138 54" fill="none" xmlns="http://www.w3.org/2000/svg">
<path d="M20.458 53.666C18.1887 53.666 15.9687 53.4933 13.798 53.148C11.6273 52.8027 9.58 52.2847 7.656 51.594C5.732 50.854 4.00533 49.966 2.476 48.93C1.736 48.3873 1.218 47.7707 0.922 47.08C0.675333 46.3893 0.601333 45.7233 0.7 45.082C0.848 44.3913 1.144 43.7993 1.588 43.306C2.032 42.8127 2.57467 42.5167 3.216 42.418C3.85733 42.27 4.57267 42.4673 5.362 43.01C7.582 44.4407 9.92533 45.5013 12.392 46.192C14.8587 46.8333 17.5473 47.154 20.458 47.154C24.6513 47.154 27.7347 46.414 29.708 44.934C31.7307 43.4047 32.742 41.4313 32.742 39.014C32.742 37.0407 32.0267 35.4867 30.596 34.352C29.1653 33.168 26.7727 32.2307 23.418 31.54L15.5 29.912C10.8133 28.9253 7.31067 27.2973 4.992 25.028C2.72267 22.7587 1.588 19.7 1.588 15.852C1.588 13.5333 2.05667 11.412 2.994 9.488C3.98067 7.564 5.33733 5.91133 7.064 4.53C8.79067 3.09933 10.8627 2.014 13.28 1.274C15.6973 0.533996 18.3367 0.163997 21.198 0.163997C24.2567 0.163997 27.118 0.558664 29.782 1.348C32.4953 2.13733 34.9127 3.346 37.034 4.974C37.6753 5.418 38.0947 5.98533 38.292 6.676C38.5387 7.31733 38.588 7.95866 38.44 8.6C38.3413 9.24133 38.07 9.784 37.626 10.228C37.182 10.672 36.6147 10.9433 35.924 11.042C35.2333 11.0913 34.4687 10.8447 33.63 10.302C31.706 9.01933 29.7327 8.10666 27.71 7.564C25.7367 6.972 23.5413 6.676 21.124 6.676C18.7067 6.676 16.5853 7.046 14.76 7.786C12.984 8.526 11.6027 9.562 10.616 10.894C9.67867 12.226 9.21 13.8047 9.21 15.63C9.21 17.702 9.876 19.3547 11.208 20.588C12.54 21.8213 14.76 22.7587 17.868 23.4L25.712 25.028C30.6453 26.064 34.3207 27.6673 36.738 29.838C39.1553 32.0087 40.364 34.8947 40.364 38.496C40.364 40.8147 39.8953 42.9113 38.958 44.786C38.0207 46.6113 36.6887 48.19 34.962 49.522C33.2353 50.854 31.1387 51.89 28.672 52.63C26.2547 53.3207 23.5167 53.666 20.458 53.666ZM48.5884 53.518C47.6017 53.518 46.8124 53.296 46.2204 52.852C45.6284 52.408 45.2831 51.816 45.1844 51.076C45.0857 50.336 45.2337 49.4973 45.6284 48.56L65.6824 3.568C66.1757 2.384 66.7924 1.54533 67.5324 1.052C68.3217 0.558666 69.1851 0.311999 70.1224 0.311999C71.0104 0.311999 71.8244 0.558666 72.5644 1.052C73.3537 1.54533 73.9951 2.384 74.4884 3.568L94.5424 48.56C94.9864 49.4973 95.1591 50.3607 95.0604 51.15C94.9617 51.89 94.6411 52.482 94.0984 52.926C93.5557 53.3207 92.7911 53.518 91.8044 53.518C90.7191 53.518 89.8557 53.2467 89.2144 52.704C88.5731 52.1613 88.0057 51.3227 87.5124 50.188L82.3324 38.2L85.8104 40.272H54.2864L57.6904 38.2L52.5844 50.188C52.0911 51.372 51.5484 52.2353 50.9564 52.778C50.3644 53.2713 49.5751 53.518 48.5884 53.518ZM69.9744 9.34L58.8004 35.832L56.9504 34.056H83.0724L81.3704 35.832L70.1224 9.34H69.9744ZM107.443 53.518C106.16 53.518 105.149 53.1727 104.409 52.482C103.718 51.7913 103.373 50.78 103.373 49.448V4.974C103.373 3.642 103.718 2.63066 104.409 1.94C105.149 1.2 106.185 0.829997 107.517 0.829997H133.861C134.946 0.829997 135.735 1.10133 136.229 1.644C136.771 2.13733 137.043 2.87733 137.043 3.864C137.043 4.9 136.771 5.68933 136.229 6.232C135.735 6.77466 134.946 7.046 133.861 7.046H111.069V23.696H132.381C133.367 23.696 134.132 23.9673 134.675 24.51C135.267 25.0033 135.563 25.7433 135.563 26.73C135.563 27.766 135.267 28.5553 134.675 29.098C134.132 29.6407 133.367 29.912 132.381 29.912H111.069V49.448C111.069 52.1613 109.86 53.518 107.443 53.518Z" fill="white"/>
</svg>
